{"title":"BanG BanG ! (2014)- Hindi Movie - New Source - HD DVDScr - x264","uid":11160423,"size":821578257,"categoryP":"video","categoryS":"movies","magnet":"?xt=urn:btih:9baf816e504922b84afaadfec7b378915590fa08&amp;dn=BanG+BanG+%21+%282014%29-+Hindi+Movie+-+New+Source+-+HD+DVDScr+-+x264+&amp;tr=udp%3A%2F%2Ftracker.openbittorrent.com%3A80&amp;tr=udp%3A%2F%2Fopen.demonii.com%3A1337&amp;tr=udp%3A%2F%2Ftracker.coppersurfer.tk%3A6969&amp;tr=udp%3A%2F%2Fexodus.desync.com%3A6969","seeders":25,"leechers":5,"uploader":"inovai","files":20,"time":1412524507,"description":"BanG BanG ! (2014)- Hindi Movie - New Source - HD DVDScr - x264 - 1CDRip - AC-3 - Cool_Candy\n\nCover:\n &lt;a href=&quot;\nhttp://forum.primetimeshow.in/viewtopic.php?f=7&amp;t=750&quot; rel=&quot;nofollow&quot; target=&quot;_NEW&quot;&gt;\nhttp://forum.primetimeshow.in/viewtopic.php?f=7&amp;t=750&lt;/a&gt;\n\nScreenshots:\n &lt;a href=&quot;\nhttp://m.primetimeshow.in/share-089E_54314D69.html&quot; rel=&quot;nofollow&quot; target=&quot;_NEW&quot;&gt;\nhttp://m.primetimeshow.in/share-089E_54314D69.html&lt;/a&gt;\n &lt;a href=&quot;\nhttp://m.primetimeshow.in/share-D02E_54314D69.html&quot; rel=&quot;nofollow&quot; target=&quot;_NEW&quot;&gt;\nhttp://m.primetimeshow.in/share-D02E_54314D69.html&lt;/a&gt;\n &lt;a href=&quot;\nhttp://m.primetimeshow.in/share-4B44_54314D69.html&quot; rel=&quot;nofollow&quot; target=&quot;_NEW&quot;&gt;\nhttp://m.primetimeshow.in/share-4B44_54314D69.html&lt;/a&gt;\n &lt;a href=&quot;\nhttp://m.primetimeshow.in/share-1C44_54314D69.html&quot; rel=&quot;nofollow&quot; target=&quot;_NEW&quot;&gt;\nhttp://m.primetimeshow.in/share-1C44_54314D69.html&lt;/a&gt;\n &lt;a href=&quot;\nhttp://m.primetimeshow.in/share-9C90_54314D69.html&quot; rel=&quot;nofollow&quot; target=&quot;_NEW&quot;&gt;\nhttp://m.primetimeshow.in/share-9C90_54314D69.html&lt;/a&gt;\n\n\nGeneral\n\nComplete name : BanG BanG ! (2014)- Hindi Movie - New Source - HD DVDScr - x264 - 1CDRip - AC-3 - Cool_Candy.mp4\n\nFormat : AVI\nFormat/Info : Audio Video Interleave\nFile size : 778 MiB\nDuration : 2h 31mn\nOverall bit rate : 717 Kbps\nWriting application : Lavf55.19.104\n\n\n\nVideo\n\nID : 0\nFormat : AVC\nFormat/Info : Advanced Video Codec\nFormat profile : &lt;a class=&quot;__cf_email__&quot; href=&quot;/cdn-cgi/l/email-protection&quot; data-cfemail=&quot;d290b3a1b7bebbbcb7929ee3fce1&quot;&gt;[email&amp;#160;protected]&lt;/a&gt;&lt;script cf-hash='f9e31' type=&quot;text/javascript&quot;&gt;\n/* &lt;![CDATA[ */!function(){try{var t=&quot;currentScript&quot;in document?document.currentScript:function(){for(var t=document.getElementsByTagName(&quot;script&quot;),e=t.length;e--;)if(t[e].getAttribute(&quot;cf-hash&quot;))return t[e]}();if(t&amp;&amp;t.previousSibling){var e,r,n,i,c=t.previousSibling,a=c.getAttribute(&quot;data-cfemail&quot;);if(a){for(e=&quot;&quot;,r=parseInt(a.substr(0,2),16),n=2;a.length-n;n+=2)i=parseInt(a.substr(n,2),16)^r,e+=String.fromCharCode(i);e=document.createTextNode(e),c.parentNode.replaceChild(e,c)}}}catch(u){}}();/* ]]&gt; */&lt;/script&gt;\nFormat settings, CABAC : No\nFormat settings, ReFrames : 2 frames\nCodec ID : H264\nDuration : 2h 31mn\nBit rate : 512 Kbps\nWidth : 608 pixels\nHeight : 248 pixels\nDisplay aspect ratio : 16:9\nFrame rate mode : Variable\nFrame rate : 23.976 fps\nColor space : YUV\nChroma subsampling : 4:2:0\nBit depth : 8 bits\nScan type : Progressive\nBits/(Pixel*Frame) : 0.142\nStream size : 559 MiB (72%)\nWriting library : x264 core 140 r2377 1ca7bb9\nEncoding settings : Cool_Candy\n\n\n\nAudio\n\n\nID : 1\nFormat : AC-3\nFormat/Info : Audio Coding 3\nMode extension : CM (complete main)\nFormat settings, Endianness : Big\nCodec ID : 2000\nDuration : 2h 31mn\nBit rate mode : Constant\nBit rate : 192 Kbps\nChannel(s) : 2 channels\nChannel positions : Front: L R\nSampling rate : 48.0 KHz\nBit depth : 16 bits\nCompression mode : Lossy\nStream size : 208 MiB (27%)\nAlignment : Aligned on interleaves\nInterleave, duration : 32 ms (0.77 video frame)\n\nThanks to Cool_Candy!!\n\nSeed n Enjoy!!","torrent":{"xt":"urn:btih:9baf816e504922b84afaadfec7b378915590fa08","amp;dn":"BanG+BanG+%21+%282014%29-+Hindi+Movie+-+New+Source+-+HD+DVDScr+-+x264+","amp;tr":["udp%3A%2F%2Ftracker.openbittorrent.com%3A80","udp%3A%2F%2Fopen.demonii.com%3A1337","udp%3A%2F%2Ftracker.coppersurfer.tk%3A6969","udp%3A%2F%2Fexodus.desync.com%3A6969"],"infoHash":"9baf816e504922b84afaadfec7b378915590fa08","infoHashBuffer":{"type":"Buffer","data":[155,175,129,110,80,73,34,184,74,250,173,254,199,179,120,145,85,144,250,8]},"announce":[],"urlList":[]}}